<svg xmlns="http://www.w3.org/2000/svg" viewBox="52 0 68 69">
  <defs>
    <radialGradient id="blue" cx="82.1123" cy="26.5918" r="41.5923" gradientUnits="userSpaceOnUse">
      <stop offset="0" stop-color="#00afdc"/>
      <stop offset=".2" stop-color="#00afdd"/>
      <stop offset="1" stop-color="#0066b3"/>
    </radialGradient>
    <clipPath id="symbol">
      <rect x="52" width="68" height="69"/>
    </clipPath>
  </defs>
  <g fill="url(#blue)" clip-path="url(#symbol)">
    <path d="M 128.694,35.647 C 117.969,28.673 93.635,14.508 76.508,14.272 C 72.193,14.216 69.049,14.872 65.997,16.743 C 65.539,17.03 65.425,17.008 65.359,16.989 L 65.596,16.49 C 67.438,14.233 71.21,10.616 77.533,8.654 C 77.533,8.654 87.655,5.114 101.221,13.356 C 109.104,18.136 114.414,22.177 119.571,26.436 C 115.666,10.22 100.516,-1.351 83.222,0.126 C 67.527,1.471 55.193,13.058 52.269,27.71 C 60.629,20.222 76.671,17.565 101.24,25.959 C 106.752,27.845 111.831,29.88 116.481,31.985 C 120.724,33.872 125.021,36.123 129.514,38.712 L 128.694,35.647"/>
    <path d="M 127.071,43.256 C 123.496,42.09 121.003,41.381 119.852,41.095 C 116.923,55.707 104.82,67.396 89.157,68.74 C 78.992,69.606 69.491,66.043 62.578,59.613 L 62.548,59.579 C 62.548,59.579 55.888,53.522 56.406,44.78 C 56.919,35.788 64.839,32.145 64.839,32.145 C 74.033,27.193 94.404,26.672 123.204,39.009 C 123.202,39.008 132.882,42.805 141.967,48.316 L 127.071,43.256"/>
  </g>
</svg>
